HIERARCHY
ROOT Hips
{
	OFFSET 0.000000 0.000000 0.000000
	CHANNELS 6 Xposition Yposition Zposition Zrotation Yrotation Xrotation 
	JOINT LHipJoint
	{
		OFFSET 0.000000 0.000000 0.000000
		CHANNELS 3 Zrotation Yrotation Xrotation
		JOINT LeftUpLeg
		{
			OFFSET 1.363060 -1.794630 0.839290
			CHANNELS 3 Zrotation Yrotation Xrotation
			JOINT LeftLeg
			{
				OFFSET 2.448110 -6.726130 0.000000
				CHANNELS 3 Zrotation Yrotation Xrotation
				JOINT LeftFoot
				{
					OFFSET 2.562200 -7.039590 0.000000
					CHANNELS 3 Zrotation Yrotation Xrotation
					JOINT LeftToeBase
					{
						OFFSET 0.157640 -0.433110 2.322550
						CHANNELS 3 Zrotation Yrotation Xrotation
						End Site
						{
							OFFSET 0.000000 0.000000 0.000000
						}
					}
				}
			}
		}
	}
	JOINT RHipJoint
	{
		OFFSET 0.000000 0.000000 0.000000
		CHANNELS 3 Zrotation Yrotation Xrotation
		JOINT RightUpLeg
		{
			OFFSET -1.305520 -1.794630 0.839290
			CHANNELS 3 Zrotation Yrotation Xrotation
			JOINT RightLeg
			{
				OFFSET -2.542530 -6.985550 0.000000
				CHANNELS 3 Zrotation Yrotation Xrotation
				JOINT RightFoot
				{
					OFFSET -2.568260 -7.056230 0.000000
					CHANNELS 3 Zrotation Yrotation Xrotation
					JOINT RightToeBase
					{
						OFFSET -0.164730 -0.452590 2.363150
						CHANNELS 3 Zrotation Yrotation Xrotation
						End Site
						{
							OFFSET 0.000000 0.000000 0.000000
						}
					}
				}
			}
		}
	}
	JOINT LowerBack
	{
		OFFSET 0.000000 0.000000 0.000000
		CHANNELS 3 Zrotation Yrotation Xrotation
		JOINT Spine
		{
			OFFSET 0.028270 2.035590 -0.193380
			CHANNELS 3 Zrotation Yrotation Xrotation
			JOINT Spine1
			{
				OFFSET 0.056720 2.048850 -0.042750
				CHANNELS 3 Zrotation Yrotation Xrotation
				JOINT Neck
				{
					OFFSET 0.000000 0.000000 0.000000
					CHANNELS 3 Zrotation Yrotation Xrotation
					JOINT Neck1
					{
						OFFSET -0.054170 1.746240 0.172020
						CHANNELS 3 Zrotation Yrotation Xrotation
						JOINT Head
						{
							OFFSET 0.104070 1.761360 -0.123970
							CHANNELS 3 Zrotation Yrotation Xrotation
							End Site
							{
								OFFSET 0.000000 0.000000 0.000000
							}
						}
					}
				}
				JOINT LeftShoulder
				{
					OFFSET 0.000000 0.000000 0.000000
					CHANNELS 3 Zrotation Yrotation Xrotation
					JOINT LeftArm
					{
						OFFSET 3.362410 1.200890 -0.311210
						CHANNELS 3 Zrotation Yrotation Xrotation
						JOINT LeftForeArm
						{
							OFFSET 4.983000 -0.000000 -0.000000
							CHANNELS 3 Zrotation Yrotation Xrotation
							JOINT LeftHand
							{
								OFFSET 3.483560 -0.000000 -0.000000
								CHANNELS 3 Zrotation Yrotation Xrotation
								JOINT LeftFingerBase
								{
									OFFSET 0.000000 0.000000 0.000000
									CHANNELS 3 Zrotation Yrotation Xrotation
									JOINT LeftHandIndex1
									{
										OFFSET 0.715260 -0.000000 -0.000000
										CHANNELS 3 Zrotation Yrotation Xrotation
										End Site
										{
											OFFSET 0.000000 0.000000 0.000000
										}
									}
								}
								JOINT LThumb
								{
									OFFSET 0.000000 0.000000 0.000000
									CHANNELS 3 Zrotation Yrotation Xrotation
									End Site
									{
										OFFSET 0.000000 0.000000 0.000000
									}
								}
							}
						}
					}
				}
				JOINT RightShoulder
				{
					OFFSET 0.000000 0.000000 0.000000
					CHANNELS 3 Zrotation Yrotation Xrotation
					JOINT RightArm
					{
						OFFSET -3.136600 1.374050 -0.404650
						CHANNELS 3 Zrotation Yrotation Xrotation
						JOINT RightForeArm
						{
							OFFSET -5.241900 -0.000000 -0.000000
							CHANNELS 3 Zrotation Yrotation Xrotation
							JOINT RightHand
							{
								OFFSET -3.444170 -0.000000 -0.000000
								CHANNELS 3 Zrotation Yrotation Xrotation
								JOINT RightFingerBase
								{
									OFFSET 0.000000 0.000000 0.000000
									CHANNELS 3 Zrotation Yrotation Xrotation
									JOINT RightHandIndex1
									{
										OFFSET -0.622530 -0.000000 -0.000000
										CHANNELS 3 Zrotation Yrotation Xrotation
										End Site
										{
											OFFSET 0.000000 0.000000 0.000000
										}
									}
								}
								JOINT RThumb
								{
									OFFSET 0.000000 0.000000 0.000000
									CHANNELS 3 Zrotation Yrotation Xrotation
									End Site
									{
										OFFSET 0.000000 0.000000 0.000000
									}
								}
							}
						}
					}
				}
			}
		}
	}
}
MOTION
Frames: 12
Frame Time: 0.008333
-0.653440 17.794657 -31.548211 -0.911443 3.007507 4.033093 -6.568813 -2.098410 0.920508 -9.990321 -4.029094 -11.517730 1.017000 10.301934 27.290051 -4.088682 15.696169 -2.825228 0.254100 -3.243500 -8.957300 4.942228 1.987385 0.192492 14.163725 1.247822 -12.090387 -2.107295 -11.317503 30.839991 4.124391 -16.965665 -10.414410 -0.014800 0.786000 -2.160300 0.710082 -1.221187 6.592479 2.356929 -1.587007 -1.714158 1.982291 -0.724123 -3.149942 4.549359 3.165518 -18.548641 -0.559660 2.497666 5.025208 -3.617200 0.864700 7.015700 3.743722 -1.763720 0.261200 -89.593422 2.041071 27.104028 20.809553 -31.379068 -5.526531 0.144847 0.343882 -10.182983 13.014437 -0.257804 -0.131800 -7.125000 0.000000 0.000000 -10.731400 29.305300 4.171900 -2.712053 1.161012 0.088122 84.525479 -0.830811 7.981213 -13.777987 22.769544 -2.845583 0.122501 -0.455152 -5.574959 -16.299454 -2.558391 0.609100 7.125000 0.000000 0.000000 8.203300 -32.069600 2.619300 
-0.661944 17.799459 -31.542808 -0.923711 2.868701 4.184805 -6.573256 -2.104227 0.915130 -9.936439 -4.004691 -11.626147 1.008799 10.280389 27.225538 -4.119403 15.786528 -2.778582 0.252500 -3.233500 -8.929500 4.948790 1.991776 0.182217 14.189898 1.401761 -12.179819 -2.101241 -11.307422 30.814099 4.129637 -16.976932 -10.391412 -0.015900 0.813900 -2.236800 0.667019 -1.208441 6.452322 2.360868 -1.578186 -1.745123 2.012432 -0.720020 -3.108437 4.515290 3.094014 -18.590913 -0.542680 2.415173 5.098369 -3.615200 0.828500 7.041800 3.745469 -1.760497 0.258262 -89.722851 2.217434 27.162629 20.612348 -31.148278 -5.428920 0.145124 0.338842 -9.725381 12.865967 -0.357124 -0.151700 -7.125000 0.000000 0.000000 -10.833700 29.207600 4.238600 -2.712132 1.166182 0.088413 84.475880 -0.924870 8.016449 -13.842371 22.855655 -2.869338 0.125807 -0.455813 -5.914211 -16.337676 -2.670254 0.643000 7.125000 0.000000 0.000000 8.183800 -32.184300 2.590200 
-0.669548 17.804062 -31.536705 -0.849573 2.740027 4.347902 -6.580591 -2.115726 0.909623 -9.976727 -3.947666 -11.748862 0.997695 10.259236 27.166829 -4.127553 15.807655 -2.784275 0.241300 -3.161400 -8.728400 4.953806 1.994557 0.175285 14.114379 1.521330 -12.284024 -2.097421 -11.297900 30.791652 4.127212 -16.956003 -10.338162 -0.016000 0.816000 -2.242600 0.553130 -1.195869 6.375680 2.340436 -1.575713 -1.825579 2.048620 -0.711153 -3.180838 4.506688 3.141845 -18.317719 -0.511382 2.456924 4.814307 -3.594000 0.841300 6.895000 3.749243 -1.780468 0.261602 -89.790532 2.408722 27.330182 20.403262 -30.896357 -5.321770 0.138619 0.330068 -9.452149 12.320766 -0.533421 -0.181400 -7.125000 0.000000 0.000000 -11.228800 29.033000 4.446200 -2.713164 1.154119 0.088399 84.462993 -1.068876 7.816936 -13.817116 22.817710 -2.857628 0.122141 -0.453891 -5.569106 -16.159960 -2.463645 0.576500 7.125000 0.000000 0.000000 8.305400 -31.970300 2.672600 
-0.679954 17.808864 -31.531503 -0.866654 2.561334 4.529589 -6.583214 -2.125642 0.903781 -9.910849 -3.851545 -11.912308 0.991377 10.238267 27.106894 -4.151327 15.874782 -2.725025 0.250000 -3.217300 -8.884400 4.961407 2.000049 0.159192 14.150431 1.758768 -12.383923 -2.091914 -11.288589 30.771056 4.136727 -16.982112 -10.326889 -0.015900 0.814000 -2.237100 0.480046 -1.169269 6.159931 2.349162 -1.553298 -1.830420 2.094881 -0.700923 -3.062485 4.512988 3.137195 -18.435635 -0.475394 2.449098 4.827402 -3.583900 0.839500 6.918100 3.755482 -1.777074 0.258678 -89.871437 2.442132 27.433870 20.063322 -30.493632 -5.159881 0.146687 0.319181 -8.945375 12.374276 -0.987697 -0.278000 -7.125000 0.000000 0.000000 -11.143400 28.587600 4.531400 -2.713565 1.156741 0.089127 84.456446 -1.086003 7.828847 -13.851692 22.864997 -2.870629 0.122908 -0.454417 -5.673205 -16.201985 -2.476225 0.581500 7.125000 0.000000 0.000000 8.273100 -31.983400 2.659400 
-0.689459 17.814267 -31.524799 -0.851171 2.379807 4.715873 -6.586863 -2.137007 0.897013 -9.885021 -3.764979 -12.066946 0.983809 10.217605 27.048456 -4.174911 15.941545 -2.698833 0.250400 -3.220000 -8.891700 4.968351 2.004942 0.144932 14.142650 1.958833 -12.496899 -2.088745 -11.281697 30.758407 4.138150 -16.978058 -10.295952 -0.016200 0.822500 -2.260500 0.394257 -1.120406 5.918620 2.332010 -1.504251 -1.850410 2.111728 -0.675698 -2.958998 4.442565 3.083306 -18.355320 -0.356182 2.383258 4.722715 -3.535100 0.811800 6.858100 3.758298 -1.778873 0.257105 -89.912906 2.536329 27.621431 19.796239 -30.172762 -5.031852 0.147838 0.311304 -8.580759 12.205793 -1.218438 -0.321700 -7.125000 0.000000 0.000000 -11.247900 28.362200 4.636700 -2.717416 1.154478 0.089106 84.485603 -1.162042 7.709857 -13.866802 22.886924 -2.876485 0.121937 -0.454483 -5.683461 -16.204842 -2.392871 0.557300 7.125000 0.000000 0.000000 8.263300 -31.897600 2.673400 
-0.698163 17.817669 -31.515594 -0.838643 2.123818 4.901379 -6.587708 -2.149356 0.893046 -9.866864 -3.614766 -12.233224 0.979557 10.201865 27.005423 -4.200763 16.014805 -2.702868 0.251100 -3.224200 -8.903700 4.974644 2.009661 0.128984 14.128828 2.177594 -12.601901 -2.085836 -11.275969 30.749641 4.128404 -16.935224 -10.236332 -0.016900 0.839600 -2.307500 0.316554 -1.034771 5.631464 2.301491 -1.407224 -1.865974 2.101876 -0.627042 -2.830852 4.334559 2.998049 -18.228457 -0.179205 2.283100 4.605051 -3.462600 0.771300 6.781900 3.759734 -1.779098 0.255092 -89.924895 2.644299 27.856064 19.534531 -29.855643 -4.907668 0.148364 0.304930 -8.263786 12.049429 -1.377172 -0.349600 -7.125000 0.000000 0.000000 -11.350000 28.207900 4.722700 -2.723585 1.152994 0.088981 84.549213 -1.261278 7.557838 -13.878690 22.906315 -2.881527 0.120598 -0.454708 -5.684003 -16.217602 -2.293045 0.528500 7.125000 0.000000 0.000000 8.244200 -31.794900 2.687700 
-0.706267 17.820670 -31.506389 -0.824101 1.872355 5.072752 -6.593765 -2.161553 0.892697 -9.850229 -3.469500 -12.386861 0.975774 10.187031 26.964984 -4.228203 16.093230 -2.711593 0.252100 -3.230800 -8.922000 4.975574 2.011363 0.115746 14.115824 2.378416 -12.705057 -2.084988 -11.272329 30.748580 4.117264 -16.886608 -10.165947 -0.018000 0.865700 -2.379200 0.158788 -1.117718 5.362017 2.427255 -1.535063 -1.914334 2.377139 -0.686142 -2.730120 4.193418 3.242136 -17.994903 -0.279699 2.646764 4.464509 -3.432600 0.926600 6.714700 3.768508 -1.795514 0.258632 -90.368271 2.892470 27.461479 19.305925 -29.589339 -4.802890 0.147602 0.300945 -7.901116 11.897558 -1.422840 -0.354000 -7.125000 0.000000 0.000000 -11.459200 28.164500 4.781800 -2.709687 1.138351 0.090807 84.200621 -1.332718 8.046707 -13.874184 22.892819 -2.877078 0.120442 -0.453069 -5.788054 -16.233344 -2.210972 0.505500 7.125000 0.000000 0.000000 8.224300 -31.712300 2.697600 
-0.713171 17.823172 -31.497285 -0.811460 1.624370 5.219246 -6.597584 -2.171868 0.893197 -9.842579 -3.328589 -12.519963 0.974348 10.177231 26.938752 -4.256806 16.175904 -2.737099 0.252700 -3.234700 -8.932800 4.976509 2.013147 0.103975 14.099463 2.548162 -12.796615 -2.085602 -11.271109 30.754216 4.102012 -16.824385 -10.081652 -0.019400 0.900300 -2.474400 0.041279 -1.161869 5.140869 2.512352 -1.607387 -1.964377 2.569824 -0.718368 -2.665093 4.046826 3.404680 -17.761869 -0.302837 2.898811 4.336033 -3.386500 1.036500 6.643300 3.774395 -1.807908 0.260752 -90.712905 3.135803 27.209063 19.094368 -29.339161 -4.705839 0.144572 0.299950 -7.585671 11.711797 -1.310205 -0.325400 -7.125000 0.000000 0.000000 -11.609300 28.276300 4.815500 -2.701234 1.128746 0.092245 83.957673 -1.435709 8.402857 -13.876527 22.891535 -2.876075 0.120362 -0.452067 -5.875551 -16.252432 -2.149561 0.488400 7.125000 0.000000 0.000000 8.203700 -31.650300 2.703100 
-0.719074 17.824972 -31.489681 -0.801181 1.417259 5.330659 -6.601601 -2.179051 0.894149 -9.839000 -3.231070 -12.614939 0.974002 10.170961 26.921227 -4.287733 16.266954 -2.770408 0.253200 -3.237600 -8.940900 4.976722 2.014124 0.095493 14.085717 2.673643 -12.870005 -2.086490 -11.270398 30.758882 4.088214 -16.767450 -9.992743 -0.021100 0.937200 -2.576200 -0.053325 -1.219638 4.999350 2.595891 -1.693478 -2.017270 2.750208 -0.757212 -2.645846 3.926302 3.574782 -17.562701 -0.349373 3.156007 4.234445 -3.353300 1.149200 6.588700 3.780248 -1.819928 0.262811 -91.057575 3.377429 26.948084 18.893347 -29.099863 -4.614045 0.140209 0.300599 -7.276380 11.501851 -1.111273 -0.280000 -7.125000 0.000000 0.000000 -11.786600 28.471900 4.836100 -2.692667 1.121331 0.093881 83.721408 -1.537957 8.779020 -13.883356 22.895699 -2.876550 0.120733 -0.451204 -5.959826 -16.267255 -2.120244 0.480400 7.125000 0.000000 0.000000 8.189300 -31.621100 2.704000 
-0.724277 17.826273 -31.484278 -0.803160 1.276828 5.406323 -6.603676 -2.182481 0.893552 -9.826577 -3.193164 -12.669621 0.974678 10.167907 26.912314 -4.318789 16.358991 -2.802845 0.253700 -3.241000 -8.950500 4.978243 2.015310 0.089615 14.088549 2.754165 -12.924028 -2.087264 -11.269786 30.760786 4.081469 -16.736047 -9.913359 -0.022900 0.976300 -2.683700 -0.085492 -1.234641 4.926869 2.623173 -1.717359 -2.052788 2.812321 -0.766926 -2.650052 3.838824 3.629749 -17.440906 -0.316426 3.246928 4.159001 -3.315900 1.190600 6.545000 3.783780 -1.826059 0.262909 -91.243006 3.552433 26.903324 18.690541 -28.851813 -4.520825 0.135205 0.301531 -6.980565 11.268050 -0.888296 -0.230900 -7.125000 0.000000 0.000000 -11.985300 28.690600 4.857300 -2.691286 1.119872 0.094855 83.647005 -1.633088 8.919065 -13.894539 22.909764 -2.880082 0.121098 -0.451135 -6.001057 -16.281116 -2.120803 0.481000 7.125000 0.000000 0.000000 8.178200 -31.621900 2.700200 
-0.729179 17.827474 -31.480976 -0.812432 1.195202 5.454933 -6.603280 -2.182940 0.889991 -9.809141 -3.212786 -12.689495 0.976226 10.167594 26.909785 -4.351442 16.457290 -2.832265 0.253600 -3.240400 -8.948700 4.982097 2.017206 0.085043 14.102664 2.801497 -12.961437 -2.087573 -11.269243 30.759122 4.082583 -16.732421 -9.843874 -0.024700 1.015500 -2.791400 -0.050293 -1.174790 4.883031 2.565842 -1.637927 -2.048887 2.708136 -0.728882 -2.631118 3.790383 3.516764 -17.430587 -0.162084 3.097168 4.106275 -3.268400 1.127800 6.511200 3.784435 -1.823532 0.260304 -91.191274 3.607645 27.181064 18.474133 -28.578418 -4.420726 0.130412 0.301252 -6.712272 11.017539 -0.713983 -0.192500 -7.125000 0.000000 0.000000 -12.192400 28.861300 4.894200 -2.700359 1.124929 0.094825 83.807123 -1.699410 8.712182 -13.909309 22.934959 -2.886993 0.120781 -0.452137 -5.988867 -16.298733 -2.113329 0.479100 7.125000 0.000000 0.000000 8.163700 -31.613600 2.696900 
-0.733982 17.828474 -31.478675 -0.834469 1.165097 5.479594 -6.596365 -2.179319 0.882656 -9.784046 -3.279850 -12.673537 0.977553 10.168736 26.909279 -4.384520 16.557986 -2.859495 0.253100 -3.236900 -8.939000 4.991422 2.021853 0.079736 14.131597 2.826210 -12.975802 -2.087236 -11.269056 30.754822 4.090339 -16.754209 -9.795656 -0.026500 1.051400 -2.890300 0.118758 -0.930160 4.847594 2.322039 -1.307116 -1.973605 2.247795 -0.573641 -2.550406 3.690628 2.971546 -17.630392 0.385174 2.369127 4.095751 -3.135000 0.818100 6.486300 3.775544 -1.795426 0.249380 -90.623201 3.441048 28.189254 18.230276 -28.253568 -4.306409 0.127369 0.298678 -6.530864 10.795833 -0.651184 -0.176400 -7.125000 0.000000 0.000000 -12.366600 28.923500 4.948500 -2.734768 1.149028 0.092156 84.471515 -1.726925 7.742276 -13.934238 22.988305 -2.902188 0.119184 -0.455311 -5.872062 -16.312389 -2.097411 0.473900 7.125000 0.000000 0.000000 8.151700 -31.594400 2.696700 
